<svg id="Camada_1" data-name="Camada 1" xmlns="http://www.w3.org/2000/svg" viewBox="0 0 1135.26 807.67"><defs><style>.cls-1{fill:#fff;}</style></defs><g id="Camada_1-2" data-name="Camada 1"><path class="cls-1" d="M64.81,980.23A29.75,29.75,0,0,1,48.1,975.4,32.8,32.8,0,0,1,36.52,962a44,44,0,0,1-4.19-19.51,40.2,40.2,0,0,1,4.53-19.08,36,36,0,0,1,12.25-13.62,30.54,30.54,0,0,1,17-5,26.48,26.48,0,0,1,14.15,4A29.36,29.36,0,0,1,90.61,920l.15-7.35A5.68,5.68,0,0,1,96.47,907h0a5.67,5.67,0,0,1,5.67,5.67v59.6A5.67,5.67,0,0,1,96.55,978h-.06a5.68,5.68,0,0,1-5.68-5.56l-.15-7.35A29.77,29.77,0,0,1,80,976.26,29,29,0,0,1,64.81,980.23Zm3-10.79A22.23,22.23,0,0,0,80.1,966a23.57,23.57,0,0,0,8.33-9.51,34,34,0,0,0,0-28.09,23.57,23.57,0,0,0-8.33-9.51,22.21,22.21,0,0,0-12.31-3.41,22.29,22.29,0,0,0-12.25,3.41,23.24,23.24,0,0,0-8.39,9.51,33.84,33.84,0,0,0,0,28.09A23.24,23.24,0,0,0,55.54,966a22.29,22.29,0,0,0,12.25,3.44Z" transform="translate(-32.32 -206.33)"/><path class="cls-1" d="M126.52,972.21V912.45A5.45,5.45,0,0,1,132,907h0a5.44,5.44,0,0,1,5.44,5.38l.08,6.68a22.37,22.37,0,0,1,8.73-10.57,24.42,24.42,0,0,1,13.46-3.76q16.51,0,22.06,15.89a23.86,23.86,0,0,1,9-11.56A24.63,24.63,0,0,1,205,904.74q12,0,18.54,7.87T230,935.1v37.11a5.77,5.77,0,0,1-5.75,5.75h0a5.76,5.76,0,0,1-5.76-5.75v-35q0-21.84-16.24-21.85-8.52,0-13.39,6.25T184,938.79v33.42a5.74,5.74,0,0,1-5.75,5.75h0a5.74,5.74,0,0,1-5.75-5.75h0V937.09q0-21.71-16-21.71-8.67,0-13.6,6.17t-4.9,17.1v33.56a5.77,5.77,0,0,1-5.75,5.75h0A5.76,5.76,0,0,1,126.52,972.21Z" transform="translate(-32.32 -206.33)"/><path class="cls-1" d="M259.7,888a7.31,7.31,0,0,1-5.62-2.41,9.47,9.47,0,0,1,0-12.2,7.83,7.83,0,0,1,11.07-.23l.23.23a9.69,9.69,0,0,1,0,12.2A7.25,7.25,0,0,1,259.7,888ZM254,972.21V912.76a5.74,5.74,0,0,1,5.75-5.75h0a5.74,5.74,0,0,1,5.75,5.73v59.47a5.74,5.74,0,0,1-5.75,5.75h0A5.77,5.77,0,0,1,254,972.21Z" transform="translate(-32.32 -206.33)"/><path class="cls-1" d="M318.16,1014a58.5,58.5,0,0,1-14.55-1.84h-.14a12.61,12.61,0,0,1-9.31-13.94l.18-1.35a38.2,38.2,0,0,0,11,4.83,48.89,48.89,0,0,0,12.79,1.7q12.86,0,19.08-7t6.23-21.28V965.05a29.73,29.73,0,0,1-10.69,11.21,29,29,0,0,1-15.16,4,29.75,29.75,0,0,1-16.71-4.83A32.74,32.74,0,0,1,289.33,962a44,44,0,0,1-4.19-19.51,40.2,40.2,0,0,1,4.53-19.08,36,36,0,0,1,12.25-13.62,30.54,30.54,0,0,1,17.05-5,26.48,26.48,0,0,1,14.15,4A29.36,29.36,0,0,1,343.47,920l.15-7.35A5.68,5.68,0,0,1,349.3,907h0a5.67,5.67,0,0,1,5.67,5.67v61.16Q355,1014,318.16,1014Zm2.44-44.56a22.2,22.2,0,0,0,12.31-3.4,23.57,23.57,0,0,0,8.33-9.51,34,34,0,0,0,0-28.09,22.76,22.76,0,0,0-32.89-9.51,23.24,23.24,0,0,0-8.39,9.51,33.84,33.84,0,0,0,0,28.09,23.24,23.24,0,0,0,8.39,9.51A22.28,22.28,0,0,0,320.6,969.44Z" transform="translate(-32.32 -206.33)"/><path class="cls-1" d="M410.06,980.23a33.65,33.65,0,0,1-18.14-5,35.84,35.84,0,0,1-12.65-13.48,39.34,39.34,0,0,1-4.67-19.3,38.59,38.59,0,0,1,4.73-19.15,36.72,36.72,0,0,1,12.79-13.55,33.15,33.15,0,0,1,17.94-5,33.86,33.86,0,0,1,18.2,5,35.17,35.17,0,0,1,12.65,13.48,39.87,39.87,0,0,1,4.6,19.29,39,39,0,0,1-4.73,19.09A36.69,36.69,0,0,1,428,975.19,33.14,33.14,0,0,1,410.06,980.23Zm0-10.79a22.2,22.2,0,0,0,12.31-3.4,23.47,23.47,0,0,0,8.32-9.51,33.84,33.84,0,0,0,0-28.09,23.47,23.47,0,0,0-8.32-9.51,23.8,23.8,0,0,0-24.56,0,23.24,23.24,0,0,0-8.39,9.51,33.84,33.84,0,0,0,0,28.09,23.24,23.24,0,0,0,8.39,9.51A22.28,22.28,0,0,0,410.06,969.44Z" transform="translate(-32.32 -206.33)"/><path class="cls-1" d="M481.51,980.23a44.82,44.82,0,0,1-12.65-1.85,35.68,35.68,0,0,1-6.92-2.76,5.12,5.12,0,0,1-2.62-5.34h0a5.08,5.08,0,0,1,5.83-4.2,5.29,5.29,0,0,1,1.35.42,40.81,40.81,0,0,0,4.12,1.67,33.41,33.41,0,0,0,10.89,2q7.58,0,11.78-2.76a8.67,8.67,0,0,0,4.19-7.59,9.27,9.27,0,0,0-1.35-5.18,12.45,12.45,0,0,0-4.87-3.84,66.62,66.62,0,0,0-10.15-3.8q-11.37-3.54-16.24-8.51T460,925.6q0-9.65,6.84-15.26t18.61-5.6a42.45,42.45,0,0,1,17,3.74,5,5,0,0,1,2.79,5.42h0a5,5,0,0,1-6.93,3.61,32.56,32.56,0,0,0-13.13-2.7q-6.78,0-10.42,2.49a8,8,0,0,0-3.66,7,8.53,8.53,0,0,0,3.11,7q3.12,2.57,11.51,5.11,13,4,18.2,9.08t5.21,13.63a18.4,18.4,0,0,1-7.58,15.32Q494,980.22,481.51,980.23Z" transform="translate(-32.32 -206.33)"/><path class="cls-1" d="M585.59,980.23a29.78,29.78,0,0,1-16.72-4.83A32.78,32.78,0,0,1,557.3,962a43.83,43.83,0,0,1-4.2-19.51,40.09,40.09,0,0,1,4.54-19.08,36,36,0,0,1,12.25-13.62,30.54,30.54,0,0,1,17.05-5,26.45,26.45,0,0,1,14.14,4A29.24,29.24,0,0,1,611.44,920V868.77a5.74,5.74,0,0,1,5.75-5.75h0a5.77,5.77,0,0,1,5.75,5.75V972.28a5.68,5.68,0,0,1-5.68,5.68h0a5.68,5.68,0,0,1-5.67-5.56l-.15-7.35a29.76,29.76,0,0,1-10.7,11.21A29,29,0,0,1,585.59,980.23Zm3-10.79a22.26,22.26,0,0,0,12.32-3.4,23.47,23.47,0,0,0,8.32-9.51,33.84,33.84,0,0,0,0-28.09,23.47,23.47,0,0,0-8.32-9.51,23.8,23.8,0,0,0-24.56,0,23.26,23.26,0,0,0-8.4,9.51,34,34,0,0,0,0,28.09,23.26,23.26,0,0,0,8.4,9.51,22.31,22.31,0,0,0,12.21,3.4Z" transform="translate(-32.32 -206.33)"/><path class="cls-1" d="M675,980.23a29.83,29.83,0,0,1-16.71-4.83A32.69,32.69,0,0,1,646.76,962a43.83,43.83,0,0,1-4.2-19.51,40.09,40.09,0,0,1,4.54-19.08,36,36,0,0,1,12.24-13.62,30.57,30.57,0,0,1,17.06-5,26.45,26.45,0,0,1,14.14,4A29.14,29.14,0,0,1,700.89,920l.16-7.35a5.67,5.67,0,0,1,5.67-5.56h0a5.67,5.67,0,0,1,5.68,5.66h0v59.6a5.68,5.68,0,0,1-5.68,5.68h0a5.67,5.67,0,0,1-5.67-5.56l-.16-7.35a29.66,29.66,0,0,1-10.69,11.21A29,29,0,0,1,675,980.23Zm3-10.79a22.26,22.26,0,0,0,12.32-3.4,23.47,23.47,0,0,0,8.32-9.51,33.84,33.84,0,0,0,0-28.09,23.47,23.47,0,0,0-8.32-9.51,23.82,23.82,0,0,0-24.57,0,23.43,23.43,0,0,0-8.39,9.51,34,34,0,0,0,0,28.09,23.43,23.43,0,0,0,8.39,9.51A22.28,22.28,0,0,0,678,969.44Z" transform="translate(-32.32 -206.33)"/><path class="cls-1" d="M767.21,972.21V912.45a5.46,5.46,0,0,1,5.44-5.44h0a5.45,5.45,0,0,1,5.45,5.38l.07,6.68a22.48,22.48,0,0,1,8.73-10.57,24.4,24.4,0,0,1,13.47-3.76q16.5,0,22.06,15.89a23.82,23.82,0,0,1,9-11.56,24.54,24.54,0,0,1,14.27-4.33q12,0,18.55,7.87t6.49,22.49v37.11A5.74,5.74,0,0,1,865,978h0a5.74,5.74,0,0,1-5.75-5.75h0v-35q0-21.84-16.24-21.85-8.53,0-13.4,6.25t-4.87,17.16v33.42A5.75,5.75,0,0,1,819,978h0a5.76,5.76,0,0,1-5.76-5.75V937.09q0-21.71-16-21.71-8.65,0-13.6,6.17t-4.94,17.1v33.56A5.76,5.76,0,0,1,773,978h0a5.74,5.74,0,0,1-5.79-5.71Z" transform="translate(-32.32 -206.33)"/><path class="cls-1" d="M927.45,980.23q-11.51,0-20-4.54a31.22,31.22,0,0,1-13-13Q890,954.28,890,942.77A43,43,0,0,1,894.29,923a34,34,0,0,1,11.91-13.41,31.3,31.3,0,0,1,17.32-4.89,29.05,29.05,0,0,1,16,4.4,29.82,29.82,0,0,1,10.69,12.2,40.89,40.89,0,0,1,3.86,18.31c0,1.23,0,2.36-.07,3.4s-.11,2.13-.2,3.26H901.33q1.21,11.22,8.12,17.17t18.54,6a49.09,49.09,0,0,0,17.37-3.2,5.11,5.11,0,0,1,6.54,3.07,5,5,0,0,1,.26,1.08h0a5.1,5.1,0,0,1-2.81,5.28,41.89,41.89,0,0,1-8,2.86A56.58,56.58,0,0,1,927.45,980.23Zm-4.6-65.13a19.53,19.53,0,0,0-14.49,5.74q-5.68,5.76-6.9,16H943a16.74,16.74,0,0,0-.27-3q-1.08-9.08-6.29-13.91t-13.59-4.83Z" transform="translate(-32.32 -206.33)"/><path class="cls-1" d="M975.09,972.21V912.45a5.45,5.45,0,0,1,5.44-5.44h0a5.44,5.44,0,0,1,5.44,5.38l.08,6.82a22.55,22.55,0,0,1,8.86-10.64,25.08,25.08,0,0,1,13.74-3.83q12,0,18.54,7.87t6.5,22.49v37.11a5.77,5.77,0,0,1-5.75,5.75h0a5.76,5.76,0,0,1-5.76-5.75v-35q0-21.84-16.24-21.85-9.06,0-14.21,6.25t-5.14,17.16v33.42a5.77,5.77,0,0,1-5.75,5.75h0A5.75,5.75,0,0,1,975.09,972.21Z" transform="translate(-32.32 -206.33)"/><path class="cls-1" d="M1064.27,978V917.37h-10.38a5.18,5.18,0,0,1-5.18-5.18h0a5.18,5.18,0,0,1,5.18-5.18h10.38V892.33a5.74,5.74,0,0,1,5.75-5.75h0a5.74,5.74,0,0,1,5.76,5.74h0V907h13.76a5.18,5.18,0,0,1,5.18,5.18h0a5.18,5.18,0,0,1-5.18,5.18h-13.76V978Z" transform="translate(-32.32 -206.33)"/><path class="cls-1" d="M1141,980.23q-11.51,0-20-4.54a31.22,31.22,0,0,1-13-13q-4.55-8.43-4.54-19.93a42.91,42.91,0,0,1,4.33-19.73,34,34,0,0,1,11.91-13.41,31.3,31.3,0,0,1,17.32-4.89,29.05,29.05,0,0,1,16,4.4,29.82,29.82,0,0,1,10.69,12.2,40.75,40.75,0,0,1,3.86,18.31c0,1.23,0,2.36-.07,3.4s-.11,2.13-.2,3.26h-52.51q1.21,11.22,8.12,17.17t18.54,6a49.09,49.09,0,0,0,17.37-3.2,5.12,5.12,0,0,1,6.55,3.06,5.77,5.77,0,0,1,.26,1.09h0a5.13,5.13,0,0,1-2.82,5.28,41.89,41.89,0,0,1-8,2.86A56,56,0,0,1,1141,980.23Zm-4.6-65.13a19.52,19.52,0,0,0-14.48,5.74q-5.68,5.76-6.91,16h41.55a16.74,16.74,0,0,0-.27-3q-1.08-9.08-6.29-13.91t-13.59-4.83Z" transform="translate(-32.32 -206.33)"/><path class="cls-1" d="M356.24,453.2A44.77,44.77,0,1,1,401,498,44.76,44.76,0,0,1,356.24,453.2Z" transform="translate(-32.32 -206.33)"/><path class="cls-1" d="M972.63,342.74c-56.48-62.91-143.34-108.19-245.19-126.89a589.3,589.3,0,0,0-106.3-9.52c-232.51,0-421,145.33-421,324.61,0,77.93,35.61,149.43,95,205.38-.72-7.41-1.07-15-1.07-22.56,0-41.08,10.51-79.87,29.61-109.24,20.16-31,47.52-48.09,77-48.09s56.88,17.08,77,48.09C485.43,616.36,503.5,654.89,500,677c31.17-40.21,67.5-74.26,113.19-97.56a344.85,344.85,0,0,1,157.2-37.65c34,0,66.79,3.35,97.81,10.4,67,15.25,131.09-67.89,131.64-136.62v-2A106.6,106.6,0,0,0,972.63,342.74ZM401,522.85a69.65,69.65,0,1,1,69.65-69.65h0A69.72,69.72,0,0,1,401,522.85ZM457.32,618c-15.43-23.71-35.38-36.78-56.2-36.78s-40.76,13-56.18,36.78c-16.5,25.38-25.59,59.36-25.59,95.68a203.52,203.52,0,0,0,5.46,47.42,409.78,409.78,0,0,0,40.66,27.42C393.16,804.89,429,790.87,438,760c9.22-32,22.56-51.47,40-78.94C473.77,661.41,467,632.89,457.32,618Z" transform="translate(-32.32 -206.33)"/></g></svg>