<svg xmlns="http://www.w3.org/2000/svg" xmlns:xlink="http://www.w3.org/1999/xlink" viewBox="0 0 1200 1200"><defs><style>.cls-1,.cls-3{fill:#fff;}.cls-1{filter:url(#luminosity-noclip);}.cls-2{mask:url(#mask);}</style><filter id="luminosity-noclip" x="105.66" y="70.98" width="928.48" height="928.48" filterUnits="userSpaceOnUse" color-interpolation-filters="sRGB"><feFlood flood-color="#fff" result="bg"/><feBlend in="SourceGraphic" in2="bg"/></filter><mask id="mask" x="105.66" y="70.98" width="928.48" height="928.48" maskUnits="userSpaceOnUse"><rect class="cls-1" x="105.66" y="70.98" width="928.48" height="928.48"/></mask></defs><g class="cls-2"><g id="Camada_1" data-name="Camada 1"><path class="cls-3" d="M356.24,552.34A44.77,44.77,0,1,1,401,597.12,44.82,44.82,0,0,1,356.24,552.34Z"/><path class="cls-3" d="M972.63,441.88C916.15,379,829.29,333.69,727.44,315a589.43,589.43,0,0,0-106.3-9.52c-232.51,0-421,145.32-421,324.6,0,77.93,35.61,149.44,95,205.39q-1.08-11.13-1.07-22.57c0-41.07,10.51-79.86,29.61-109.23,20.16-31,47.52-48.09,77-48.09s56.88,17.08,77,48.09C485.43,715.49,503.5,754,500,776.14c31.17-40.21,67.5-74.26,113.19-97.57a344.93,344.93,0,0,1,157.2-37.64c34,0,66.79,3.34,97.81,10.4,67,15.24,131.09-67.9,131.64-136.63,0-.51,0-1,0-1.54v-.44A106.58,106.58,0,0,0,972.63,441.88ZM401,622a69.65,69.65,0,1,1,69.65-69.65A69.73,69.73,0,0,1,401,622Zm56.31,95.12c-15.43-23.72-35.38-36.78-56.2-36.78s-40.76,13.06-56.18,36.78c-16.5,25.37-25.59,59.35-25.59,95.67a203.53,203.53,0,0,0,5.46,47.43,410.25,410.25,0,0,0,40.66,27.41C393.16,904,429,890,438,859.07c9.22-32,22.56-51.46,40-78.93C473.77,760.54,467,732,457.32,717.11Z"/></g></g></svg>